M48
INCH
T10C0.027559
T11C0.042000
T12C0.040000
T13C0.035000
T14C0.038000
T15C0.031497
T16C0.027000
T17C0.030000
T18C0.039370
T19C0.041667
T20C0.015748
%
T10
X010763Y002007
X009976Y002007
X009188Y002007
T11
X004188Y013507
X004188Y014507
X004188Y015507
T12
X002188Y016007
X001188Y016007
X017188Y013007
X017188Y014007
X017188Y010507
X017188Y011507
X022688Y002007
X022688Y003007
X022688Y004007
X022688Y005007
X022688Y006007
X022688Y007007
X022688Y008007
X022688Y009007
T13
X001688Y000507
X001688Y004507
X001188Y008507
X002188Y008507
X000688Y002007
X000688Y006007
X014188Y016507
X014188Y015507
X006688Y002007
X007688Y002007
X002188Y013007
X001188Y013007
X020688Y001507
X020688Y002507
X021188Y008007
X021188Y005007
X020188Y008007
X020188Y005007
X019188Y008007
X019188Y005007
X018188Y008007
X018188Y005007
X017188Y008007
X017188Y005007
X016188Y008007
X016188Y005007
X015188Y008007
X015188Y005007
X014188Y008007
X014188Y005007
X013188Y008007
X013188Y005007
X012188Y008007
X012188Y005007
X011188Y008007
X011188Y005007
X010188Y008007
X010188Y005007
X009188Y008007
X009188Y005007
X008188Y008007
X008188Y005007
T14
X003188Y001007
X003188Y002007
X003188Y003007
T15
X003188Y007007
X003188Y006023
T16
X017188Y003007
X016188Y003007
T17
X015187Y002007
X016188Y002007
X017187Y002007
X018188Y002007
T18
X017188Y015507
X017188Y016507
X001188Y011007
X002188Y011007
X003188Y011007
T19
X012179Y009514
X012179Y010507
X012179Y011500
X012179Y012493
X012179Y013486
X012179Y014480
X012179Y015473
X012179Y016466
X007188Y009514
X007188Y010507
X007188Y011500
X007188Y012493
X007188Y013486
X007188Y014480
X007188Y015473
X007188Y016466
T20
X005682Y001023
T00
M30
