G04 MADE WITH FRITZING*
G04 WWW.FRITZING.ORG*
G04 DOUBLE SIDED*
G04 HOLES PLATED*
G04 CONTOUR ON CENTER OF CONTOUR VECTOR*
%ASAXBY*%
%FSLAX23Y23*%
%MOIN*%
%OFA0B0*%
%SFA1.0B1.0*%
%ADD10C,0.064000*%
%ADD11C,0.082000*%
%ADD12C,0.075000*%
%ADD13C,0.078000*%
%ADD14C,0.080000*%
%ADD15C,0.062992*%
%ADD16C,0.069000*%
%ADD17C,0.070000*%
%ADD18C,0.074000*%
%ADD19C,0.047222*%
%ADD20C,0.039370*%
%ADD21C,0.079370*%
%ADD22R,0.082000X0.082000*%
%ADD23R,0.064000X0.064000*%
%ADD24R,0.075000X0.075000*%
%ADD25R,0.078000X0.078000*%
%ADD26R,0.080000X0.080000*%
%ADD27R,0.062992X0.062992*%
%ADD28R,0.069000X0.069000*%
%ADD29R,0.079370X0.079370*%
%ADD30C,0.024000*%
%ADD31R,0.001000X0.001000*%
%LNCOPPER0*%
G90*
G70*
G54D10*
X919Y201D03*
X998Y201D03*
X1076Y201D03*
G54D11*
X419Y1551D03*
X419Y1451D03*
X419Y1351D03*
G54D10*
X2269Y901D03*
X2269Y801D03*
X2269Y701D03*
X2269Y601D03*
X2269Y501D03*
X2269Y401D03*
X2269Y301D03*
X2269Y201D03*
G54D12*
X819Y501D03*
X819Y801D03*
X919Y501D03*
X919Y801D03*
X1019Y501D03*
X1019Y801D03*
X1119Y501D03*
X1119Y801D03*
X1219Y501D03*
X1219Y801D03*
X1319Y501D03*
X1319Y801D03*
X1419Y501D03*
X1419Y801D03*
X1519Y501D03*
X1519Y801D03*
X1619Y501D03*
X1619Y801D03*
X1719Y501D03*
X1719Y801D03*
X1819Y501D03*
X1819Y801D03*
X1919Y501D03*
X1919Y801D03*
X2019Y501D03*
X2019Y801D03*
X2119Y501D03*
X2119Y801D03*
G54D13*
X319Y301D03*
X319Y201D03*
X319Y101D03*
G54D14*
X1719Y1151D03*
X1719Y1051D03*
X1719Y1401D03*
X1719Y1301D03*
X119Y1601D03*
X219Y1601D03*
G54D12*
X2069Y251D03*
X2069Y151D03*
X119Y1301D03*
X219Y1301D03*
G54D15*
X319Y602D03*
X319Y701D03*
G54D16*
X1619Y301D03*
X1719Y301D03*
G54D17*
X1819Y201D03*
X1719Y201D03*
X1619Y201D03*
X1519Y201D03*
G54D12*
X769Y201D03*
X669Y201D03*
G54D18*
X319Y1101D03*
X219Y1101D03*
X119Y1101D03*
G54D19*
X719Y1647D03*
X719Y1547D03*
X719Y1448D03*
X719Y1349D03*
X719Y1249D03*
X719Y1150D03*
X719Y1051D03*
X719Y951D03*
X1218Y1647D03*
X1218Y1547D03*
X1218Y1448D03*
X1218Y1349D03*
X1218Y1249D03*
X1218Y1150D03*
X1218Y1051D03*
X1218Y951D03*
G54D12*
X1419Y1551D03*
X1419Y1651D03*
G54D20*
X568Y102D03*
G54D12*
X69Y601D03*
X69Y201D03*
X219Y851D03*
X119Y851D03*
X169Y451D03*
X169Y51D03*
G54D21*
X1719Y1651D03*
X1719Y1551D03*
G54D22*
X419Y1551D03*
G54D23*
X2269Y901D03*
G54D24*
X819Y501D03*
G54D25*
X319Y301D03*
G54D26*
X1719Y1151D03*
X1719Y1401D03*
X119Y1601D03*
G54D24*
X2069Y251D03*
X119Y1301D03*
G54D27*
X319Y602D03*
G54D28*
X1619Y301D03*
G54D24*
X769Y201D03*
X1419Y1551D03*
X219Y851D03*
G54D29*
X1719Y1651D03*
G54D30*
X128Y1328D02*
X170Y1450D01*
D02*
X170Y1450D02*
X387Y1451D01*
D02*
X1619Y325D02*
X1619Y472D01*
D02*
X1719Y325D02*
X1719Y472D01*
D02*
X1619Y276D02*
X1619Y227D01*
D02*
X1719Y276D02*
X1719Y227D01*
D02*
X1519Y175D02*
X1519Y100D01*
D02*
X1519Y100D02*
X1818Y101D01*
D02*
X1219Y201D02*
X1218Y51D01*
D02*
X1218Y51D02*
X525Y51D01*
D02*
X1493Y201D02*
X1219Y201D01*
D02*
X525Y51D02*
X519Y201D01*
D02*
X1519Y227D02*
X1519Y472D01*
D02*
X1510Y528D02*
X1428Y774D01*
D02*
X719Y701D02*
X719Y920D01*
D02*
X1318Y700D02*
X719Y701D01*
D02*
X1319Y529D02*
X1318Y700D01*
D02*
X668Y652D02*
X670Y1051D01*
D02*
X1219Y529D02*
X1219Y650D01*
D02*
X670Y1051D02*
X687Y1051D01*
D02*
X1219Y650D02*
X668Y652D01*
D02*
X1119Y529D02*
X1118Y601D01*
D02*
X1118Y601D02*
X619Y601D01*
D02*
X619Y601D02*
X618Y1650D01*
D02*
X618Y1650D02*
X687Y1648D01*
D02*
X1418Y951D02*
X1250Y951D01*
D02*
X1419Y829D02*
X1418Y951D01*
D02*
X2219Y300D02*
X2124Y773D01*
D02*
X2238Y301D02*
X2219Y300D01*
D02*
X2069Y151D02*
X2096Y161D01*
D02*
X2239Y193D02*
X2069Y151D01*
D02*
X2019Y901D02*
X2019Y829D01*
D02*
X2238Y901D02*
X2019Y901D01*
D02*
X569Y1150D02*
X438Y1325D01*
D02*
X568Y121D02*
X569Y1150D01*
D02*
X470Y850D02*
X469Y299D01*
D02*
X469Y299D02*
X349Y300D01*
D02*
X248Y851D02*
X470Y850D01*
D02*
X122Y822D02*
X165Y479D01*
D02*
X519Y201D02*
X346Y287D01*
D02*
X1818Y101D02*
X1819Y175D01*
G54D31*
X282Y1138D02*
X355Y1138D01*
X282Y1137D02*
X355Y1137D01*
X282Y1136D02*
X355Y1136D01*
X282Y1135D02*
X355Y1135D01*
X282Y1134D02*
X355Y1134D01*
X282Y1133D02*
X355Y1133D01*
X282Y1132D02*
X355Y1132D01*
X282Y1131D02*
X355Y1131D01*
X282Y1130D02*
X355Y1130D01*
X282Y1129D02*
X355Y1129D01*
X282Y1128D02*
X355Y1128D01*
X282Y1127D02*
X355Y1127D01*
X282Y1126D02*
X355Y1126D01*
X282Y1125D02*
X355Y1125D01*
X282Y1124D02*
X355Y1124D01*
X282Y1123D02*
X355Y1123D01*
X282Y1122D02*
X355Y1122D01*
X282Y1121D02*
X355Y1121D01*
X282Y1120D02*
X312Y1120D01*
X325Y1120D02*
X355Y1120D01*
X282Y1119D02*
X309Y1119D01*
X327Y1119D02*
X355Y1119D01*
X282Y1118D02*
X308Y1118D01*
X329Y1118D02*
X355Y1118D01*
X282Y1117D02*
X306Y1117D01*
X331Y1117D02*
X355Y1117D01*
X282Y1116D02*
X305Y1116D01*
X332Y1116D02*
X355Y1116D01*
X282Y1115D02*
X304Y1115D01*
X333Y1115D02*
X355Y1115D01*
X282Y1114D02*
X303Y1114D01*
X334Y1114D02*
X355Y1114D01*
X282Y1113D02*
X302Y1113D01*
X335Y1113D02*
X355Y1113D01*
X282Y1112D02*
X301Y1112D01*
X335Y1112D02*
X355Y1112D01*
X282Y1111D02*
X301Y1111D01*
X336Y1111D02*
X355Y1111D01*
X282Y1110D02*
X300Y1110D01*
X336Y1110D02*
X355Y1110D01*
X282Y1109D02*
X300Y1109D01*
X337Y1109D02*
X355Y1109D01*
X282Y1108D02*
X299Y1108D01*
X337Y1108D02*
X355Y1108D01*
X282Y1107D02*
X299Y1107D01*
X338Y1107D02*
X355Y1107D01*
X282Y1106D02*
X299Y1106D01*
X338Y1106D02*
X355Y1106D01*
X282Y1105D02*
X298Y1105D01*
X338Y1105D02*
X355Y1105D01*
X282Y1104D02*
X298Y1104D01*
X338Y1104D02*
X355Y1104D01*
X282Y1103D02*
X298Y1103D01*
X338Y1103D02*
X355Y1103D01*
X282Y1102D02*
X298Y1102D01*
X338Y1102D02*
X355Y1102D01*
X282Y1101D02*
X298Y1101D01*
X338Y1101D02*
X355Y1101D01*
X282Y1100D02*
X298Y1100D01*
X338Y1100D02*
X355Y1100D01*
X282Y1099D02*
X298Y1099D01*
X338Y1099D02*
X355Y1099D01*
X282Y1098D02*
X298Y1098D01*
X338Y1098D02*
X355Y1098D01*
X282Y1097D02*
X299Y1097D01*
X338Y1097D02*
X355Y1097D01*
X282Y1096D02*
X299Y1096D01*
X338Y1096D02*
X355Y1096D01*
X282Y1095D02*
X299Y1095D01*
X337Y1095D02*
X355Y1095D01*
X282Y1094D02*
X299Y1094D01*
X337Y1094D02*
X355Y1094D01*
X282Y1093D02*
X300Y1093D01*
X337Y1093D02*
X355Y1093D01*
X282Y1092D02*
X300Y1092D01*
X336Y1092D02*
X355Y1092D01*
X282Y1091D02*
X301Y1091D01*
X336Y1091D02*
X355Y1091D01*
X282Y1090D02*
X302Y1090D01*
X335Y1090D02*
X355Y1090D01*
X282Y1089D02*
X302Y1089D01*
X334Y1089D02*
X355Y1089D01*
X282Y1088D02*
X303Y1088D01*
X333Y1088D02*
X355Y1088D01*
X282Y1087D02*
X304Y1087D01*
X332Y1087D02*
X355Y1087D01*
X282Y1086D02*
X305Y1086D01*
X331Y1086D02*
X355Y1086D01*
X282Y1085D02*
X307Y1085D01*
X330Y1085D02*
X355Y1085D01*
X282Y1084D02*
X308Y1084D01*
X328Y1084D02*
X355Y1084D01*
X282Y1083D02*
X310Y1083D01*
X326Y1083D02*
X355Y1083D01*
X282Y1082D02*
X313Y1082D01*
X323Y1082D02*
X355Y1082D01*
X282Y1081D02*
X355Y1081D01*
X282Y1080D02*
X355Y1080D01*
X282Y1079D02*
X355Y1079D01*
X282Y1078D02*
X355Y1078D01*
X282Y1077D02*
X355Y1077D01*
X282Y1076D02*
X355Y1076D01*
X282Y1075D02*
X355Y1075D01*
X282Y1074D02*
X355Y1074D01*
X282Y1073D02*
X355Y1073D01*
X282Y1072D02*
X355Y1072D01*
X282Y1071D02*
X355Y1071D01*
X282Y1070D02*
X355Y1070D01*
X282Y1069D02*
X355Y1069D01*
X282Y1068D02*
X355Y1068D01*
X282Y1067D02*
X355Y1067D01*
X282Y1066D02*
X355Y1066D01*
X282Y1065D02*
X355Y1065D01*
D02*
G04 End of Copper0*
M02*